<svg width="52" height="51" viewBox="0 0 52 51" fill="none" xmlns="http://www.w3.org/2000/svg">
<g filter="url(#filter0_d_3528_635)">
<path opacity="0.6" d="M5.3178 21.5206C5.3178 32.4984 14.4642 41.4371 25.7962 41.4371C37.1282 41.4371 46.2746 32.4984 46.2746 21.5206C46.2746 10.5428 37.1282 1.60405 25.7962 1.60405C14.4642 1.60405 5.3178 10.5428 5.3178 21.5206Z" stroke="#231F20" stroke-width="1.74423"/>
<path opacity="0.6" d="M18.4364 20.3413C18.0958 20.6819 18.0958 21.2341 18.4364 21.5747L23.9865 27.1248C24.3271 27.4654 24.8793 27.4654 25.2199 27.1248C25.5605 26.7842 25.5605 26.232 25.2199 25.8914L20.2865 20.958L25.2199 16.0246C25.5605 15.684 25.5605 15.1318 25.2199 14.7912C24.8793 14.4506 24.3271 14.4506 23.9865 14.7912L18.4364 20.3413ZM32.5376 20.0859H19.0531V21.8301H32.5376V20.0859Z" fill="#231F20"/>
</g>
<defs>
<filter id="filter0_d_3528_635" x="0.445679" y="0.731934" width="50.701" height="49.5773" filterUnits="userSpaceOnUse" color-interpolation-filters="sRGB">
<feFlood flood-opacity="0" result="BackgroundImageFix"/>
<feColorMatrix in="SourceAlpha" type="matrix" values="0 0 0 0 0 0 0 0 0 0 0 0 0 0 0 0 0 0 127 0" result="hardAlpha"/>
<feOffset dy="4"/>
<feGaussianBlur stdDeviation="2"/>
<feComposite in2="hardAlpha" operator="out"/>
<feColorMatrix type="matrix" values="0 0 0 0 0 0 0 0 0 0 0 0 0 0 0 0 0 0 0.25 0"/>
<feBlend mode="normal" in2="BackgroundImageFix" result="effect1_dropShadow_3528_635"/>
<feBlend mode="normal" in="SourceGraphic" in2="effect1_dropShadow_3528_635" result="shape"/>
</filter>
</defs>
</svg>
