<svg width="44" height="43" viewBox="0 0 44 43" fill="none" xmlns="http://www.w3.org/2000/svg">
<path opacity="0.6" d="M1.3178 21.5206C1.3178 32.4984 10.4642 41.4371 21.7962 41.4371C33.1282 41.4371 42.2746 32.4984 42.2746 21.5206C42.2746 10.5428 33.1282 1.60405 21.7962 1.60405C10.4642 1.60405 1.3178 10.5428 1.3178 21.5206Z" stroke="#231F20" stroke-width="1.74423"/>
<path opacity="0.6" d="M14.4364 20.3413C14.0958 20.6819 14.0958 21.2341 14.4364 21.5747L19.9865 27.1248C20.3271 27.4654 20.8793 27.4654 21.2199 27.1248C21.5605 26.7842 21.5605 26.232 21.2199 25.8914L16.2865 20.958L21.2199 16.0246C21.5605 15.684 21.5605 15.1318 21.2199 14.7912C20.8793 14.4506 20.3271 14.4506 19.9865 14.7912L14.4364 20.3413ZM28.5376 20.0859H15.0531V21.8301H28.5376V20.0859Z" fill="#231F20"/>
</svg>
