<svg width="143" height="28" viewBox="0 0 143 28" fill="none" xmlns="http://www.w3.org/2000/svg">
<path fill-rule="evenodd" clip-rule="evenodd" d="M14.6512 0.979492L17.8918 10.9531H28.3787L19.8946 17.1171L23.1353 27.0907L14.6512 20.9267L6.16717 27.0907L9.40779 17.1171L0.923737 10.9531H11.4106L14.6512 0.979492ZM43.1576 0.979492L46.3172 10.9531H56.5419L48.2699 17.1171L51.4295 27.0907L43.1576 20.9267L34.8856 27.0907L38.0452 17.1171L29.7733 10.9531H39.998L43.1576 0.979492ZM74.9055 10.9531L71.6649 0.979492L68.4243 10.9531H57.9374L66.4215 17.1171L63.1808 27.0907L71.6649 20.9267L80.1489 27.0907L76.9083 17.1171L85.3924 10.9531H74.9055ZM100.172 0.979492L103.332 10.9531H113.557L105.285 17.1171L108.444 27.0907L100.172 20.9267L91.9003 27.0907L95.0599 17.1171L86.7879 10.9531H97.0126L100.172 0.979492ZM131.919 10.9531L128.679 0.979492L125.438 10.9531H114.951L123.435 17.1171L120.195 27.0907L128.679 20.9267L137.163 27.0907L133.922 17.1171L142.406 10.9531H131.919Z" fill="#FFD521"/>
</svg>
