<svg width="16" height="19" viewBox="0 0 16 19" fill="none" xmlns="http://www.w3.org/2000/svg">
<path fill-rule="evenodd" clip-rule="evenodd" d="M7.44824 18.4659C7.54775 18.5179 7.65903 18.5443 7.7703 18.5434C7.88158 18.5425 7.99195 18.5152 8.09237 18.4623L11.2986 16.7484C12.2078 16.2637 12.9198 15.7218 13.4753 15.0909C14.683 13.7162 15.3425 11.9617 15.3308 10.1526L15.2928 4.18509C15.2892 3.49775 14.8377 2.88443 14.1701 2.66149L8.20546 0.660272C7.8463 0.538666 7.45276 0.54131 7.09993 0.666441L1.15794 2.73903C0.493899 2.97079 0.0506025 3.58851 0.0542212 4.27673L0.0922181 10.2398C0.103979 12.0516 0.786114 13.7981 2.01378 15.1587C2.57468 15.7808 3.293 16.3149 4.21217 16.7916L7.44824 18.4659ZM6.59985 11.4523C6.73375 11.5809 6.90745 11.6444 7.08115 11.6426C7.25485 11.6417 7.42764 11.5765 7.55973 11.4461L11.0636 7.99178C11.3268 7.73183 11.3241 7.31414 11.0582 7.05771C10.7913 6.80128 10.3615 6.80304 10.0983 7.063L7.07119 10.0468L5.83177 8.85536C5.56489 8.59893 5.13607 8.60158 4.8719 8.86153C4.60863 9.12149 4.61135 9.53918 4.87823 9.79561L6.59985 11.4523Z" fill="#59AE62"/>
</svg>
